HIERARCHY
ROOT Hips
{
	OFFSET -0.179506 -22.333345 2.821913
	CHANNELS 6 Xposition Yposition Zposition Zrotation Yrotation Xrotation 
	JOINT LeftUpLeg
	{
		OFFSET 6.951974 -9.140623 -0.681533
		CHANNELS 3 Zrotation Yrotation Xrotation
		JOINT LeftLeg
		{
			OFFSET 3.427654 -37.519855 -0.449580
			CHANNELS 3 Zrotation Yrotation Xrotation
			JOINT LeftFoot
			{
				OFFSET -1.359570 -39.796059 -4.369333
				CHANNELS 3 Zrotation Yrotation Xrotation
				JOINT LeftToe
				{
					OFFSET 2.635814 -5.579078 11.928840
					CHANNELS 3 Zrotation Yrotation Xrotation
					End Site
					{
						OFFSET 0.000000 0.000000 0.000000
					}
				}
			}
		}
	}
	JOINT RightUpLeg
	{
		OFFSET -6.767048 -9.052170 -0.431982
		CHANNELS 3 Zrotation Yrotation Xrotation
		JOINT RightLeg
		{
			OFFSET -3.829005 -38.256897 -0.885003
			CHANNELS 3 Zrotation Yrotation Xrotation
			JOINT RightFoot
			{
				OFFSET 1.577377 -39.841461 -4.231180
				CHANNELS 3 Zrotation Yrotation Xrotation
				JOINT RightToe
				{
					OFFSET -2.537174 -4.814398 12.334795
					CHANNELS 3 Zrotation Yrotation Xrotation
					End Site
					{
						OFFSET 0.000000 0.000000 0.000000
					}
				}
			}
		}
	}
	JOINT Spine
	{
		OFFSET -0.253288 10.896323 -2.669631
		CHANNELS 3 Zrotation Yrotation Xrotation
		JOINT Spine1
		{
			OFFSET 0.548704 13.518043 0.109247
			CHANNELS 3 Zrotation Yrotation Xrotation
			JOINT Spine2
			{
				OFFSET 0.145701 5.292222 2.542457
				CHANNELS 3 Zrotation Yrotation Xrotation
				JOINT Neck
				{
					OFFSET -0.277840 21.387037 -4.285703
					CHANNELS 3 Zrotation Yrotation Xrotation
					JOINT Head
					{
						OFFSET 0.515184 6.496960 5.134897
						CHANNELS 3 Zrotation Yrotation Xrotation
						End Site
						{
							OFFSET 0.000000 0.000000 0.000000
						}
					}
				}
				JOINT LeftShoulder
				{
					OFFSET 7.884473 12.174932 -3.408961
					CHANNELS 3 Zrotation Yrotation Xrotation
					JOINT LeftArm
					{
						OFFSET 9.097692 3.046888 -0.886815
						CHANNELS 3 Zrotation Yrotation Xrotation
						JOINT LeftForeArm
						{
							OFFSET 25.961220 -1.277207 -2.745643
							CHANNELS 3 Zrotation Yrotation Xrotation
							JOINT LeftHand
							{
								OFFSET 24.923361 0.898606 -0.117091
								CHANNELS 3 Zrotation Yrotation Xrotation
								End Site
								{
									OFFSET 0.000000 0.000000 0.000000
								}
							}
						}
					}
				}
				JOINT RightShoulder
				{
					OFFSET -8.175920 11.883285 -3.861528
					CHANNELS 3 Zrotation Yrotation Xrotation
					JOINT RightArm
					{
						OFFSET -9.601238 3.255117 -0.914307
						CHANNELS 3 Zrotation Yrotation Xrotation
						JOINT RightForeArm
						{
							OFFSET -25.374195 -1.332924 -2.140099
							CHANNELS 3 Zrotation Yrotation Xrotation
							JOINT RightHand
							{
								OFFSET -25.529810 0.777228 -0.555919
								CHANNELS 3 Zrotation Yrotation Xrotation
								End Site
								{
									OFFSET 0.000000 0.000000 0.000000
								}
							}
						}
					}
				}
			}
		}
	}
}
MOTION
Frames: 11
Frame Time: 0.033333
-56.817780 106.347183 -21.678734 -173.074259 -74.134805 165.232517 -4.659346 -1.696792 1.908678 -3.444511 -10.099162 12.614861 4.101540 14.401521 -10.032905 6.601841 0.318612 -0.020885 -5.219275 2.120675 -14.121816 0.782373 3.972766 47.688488 3.339805 -7.123479 -4.463134 4.170939 -1.375012 0.828852 -0.514531 0.860237 6.652061 3.364299 -2.945328 4.770851 -1.633123 0.744719 -0.095522 -2.641629 3.697690 9.565644 -0.655830 3.398762 4.650941 -18.545787 -1.172284 3.692910 -55.374464 -10.948334 12.536522 -2.368477 -18.035901 13.189436 -2.670399 -5.232266 6.941080 13.625134 5.848923 0.648566 57.672256 6.037993 16.378582 -1.180983 25.495339 8.212481 5.156667 1.707092 3.383684 
-58.440624 106.517029 -21.476873 -169.223232 -77.965122 161.667962 -4.810918 -2.078844 3.210568 -3.173831 -12.315394 11.648956 3.716340 13.308878 -9.935618 6.399082 0.414052 0.147657 -4.063918 2.862291 -15.818176 1.044275 3.974370 45.386695 3.496874 -6.707295 -4.990756 4.168423 -1.475807 0.780651 -0.822863 0.379365 6.745484 3.687974 -3.210620 4.384117 -1.307176 0.595785 0.041750 -2.806163 4.021638 9.285402 -0.355445 3.664722 4.402820 -18.107591 -1.458494 3.671640 -55.924569 -11.434056 13.347564 -2.582635 -18.922145 13.121675 -1.963345 -5.428815 6.913824 13.348496 5.711651 0.577230 57.771562 5.631868 16.232315 -1.307357 24.976351 7.211049 5.152428 1.779763 2.899114 
-58.938049 106.587296 -21.234503 -163.380265 -81.078034 155.602716 -4.744398 -2.446827 3.808731 -3.187516 -14.383519 11.664912 3.731954 12.410423 -9.752269 5.920269 0.397578 0.285688 -3.169166 3.261723 -16.472708 1.036057 4.217388 39.791755 4.203387 -6.341839 -4.475162 4.003600 -1.525273 0.774314 -0.883285 0.124721 7.050606 3.824393 -3.246990 4.120867 -1.057492 0.553526 -0.166395 -2.898248 3.784283 9.026928 0.044797 3.729878 4.937788 -17.830253 -1.499419 3.559280 -56.436507 -12.318491 14.064838 -2.834308 -19.405737 13.336344 -1.677007 -5.975777 7.076508 13.272372 5.172536 0.477384 57.706006 5.353815 16.179559 -1.346157 24.689882 6.581690 5.429539 2.005850 2.532921 
-60.138523 106.594086 -20.508846 -148.825844 -84.242449 141.121190 -4.843468 -2.698388 5.085465 -2.917709 -16.426067 10.617118 3.630933 11.381212 -9.923990 5.558404 0.356435 0.320320 -2.403365 3.716490 -16.823764 1.063362 4.832367 34.154161 5.168662 -5.688687 -4.148277 3.882229 -1.510696 0.742740 -1.181453 -0.056541 7.420958 3.988370 -3.218447 3.726741 -0.842600 0.488615 -0.116889 -2.827249 3.936601 8.265555 0.119000 3.376975 5.047397 -17.430414 -1.499106 3.313807 -56.877846 -13.040767 14.505783 -3.051210 -19.723768 13.432302 -1.722443 -6.478423 6.888878 13.433208 4.667977 0.207899 57.649270 5.349629 16.254224 -1.838311 24.004611 5.485640 5.237930 2.231811 2.434628 
-61.548935 106.534897 -19.983862 -110.418192 -86.728882 102.731795 -5.212071 -3.138445 6.481184 -2.561526 -18.672780 9.812148 3.680269 10.506991 -10.180684 5.033733 0.411984 0.468842 -1.918078 4.288290 -16.751591 0.932143 6.339445 27.651297 6.693421 -4.629360 -3.144564 3.543547 -1.547350 0.784795 -1.549857 -0.220648 7.712432 4.010903 -3.278657 3.662750 -0.698894 0.436245 -0.225283 -2.954412 4.298905 8.076289 0.260467 3.607802 5.041980 -17.320870 -1.550993 3.035316 -57.015811 -13.375723 14.779978 -3.192608 -20.241298 13.579151 -1.638145 -7.072323 7.236513 13.656769 4.249038 -0.195542 57.436608 5.174290 16.310147 -1.988300 23.667307 4.604265 5.146840 2.560427 2.185974 
-62.828625 106.410110 -19.012615 -54.846676 -85.931394 47.472797 -5.704635 -4.155190 7.163158 -2.477295 -21.132589 9.758154 3.906694 10.281707 -10.498410 4.790431 0.464691 0.422639 -1.495885 5.186051 -16.560920 0.467332 8.510159 20.728308 8.601206 -3.329806 -1.929347 3.378888 -1.677090 0.819299 -1.855292 -0.291938 7.687876 4.164727 -3.283420 3.722355 -0.636541 0.337397 -0.435330 -2.877126 4.500778 7.484851 0.581675 3.973481 5.217467 -17.334518 -1.362201 2.748242 -57.254415 -13.775491 15.236934 -3.068714 -20.769894 13.638032 -1.542454 -7.448131 7.905675 13.870859 3.765123 -0.460379 57.188566 5.299949 16.684403 -2.069704 23.630152 3.935722 5.247368 2.580931 2.464867 
-64.256500 106.242615 -18.071175 -29.625063 -83.101102 22.260346 -6.394187 -5.275406 8.066514 -2.609296 -24.048660 10.337720 4.313105 10.305824 -10.865528 4.420460 0.435528 0.449749 -1.487014 6.151929 -15.950631 -0.206286 11.543577 13.863000 10.792568 -1.272835 -0.399752 3.193020 -1.710674 0.948451 -2.269289 -0.240564 7.679366 4.245695 -3.302423 3.943568 -0.580700 0.342478 -0.565836 -2.772274 4.715458 7.252042 0.899481 4.035394 5.219931 -17.161100 -1.336902 2.457251 -57.685325 -14.121124 15.713377 -2.879878 -21.152924 13.130603 -1.378787 -7.940008 8.688099 14.057582 3.436634 -0.459604 56.986033 5.597195 16.798833 -2.146969 23.178278 2.847455 5.118929 2.781795 2.437533 
-65.994339 106.025253 -17.136332 -19.621802 -79.856631 12.327682 -7.040709 -6.292955 8.926439 -3.063975 -26.730540 11.476597 4.500020 10.329146 -11.496445 4.191777 0.349800 0.376716 -1.657104 7.169319 -15.729867 -0.972124 14.307990 9.038190 12.628337 0.695586 0.478304 3.101697 -1.685352 1.037543 -2.713838 -0.238882 7.430185 4.290934 -3.226066 4.236103 -0.616922 0.384445 -0.556974 -2.629587 4.989108 7.194258 1.001981 3.979006 4.994577 -17.066730 -1.134044 2.099240 -57.854246 -14.243837 16.016632 -2.677077 -21.482807 12.590028 -0.999376 -8.202777 9.095822 14.360650 3.189944 -0.362919 56.639523 5.814726 16.932946 -2.025860 23.167540 2.063816 4.975697 2.879154 2.394997 
-67.625496 105.744736 -16.337090 -14.608505 -76.270555 7.434707 -7.445222 -7.334545 9.462697 -3.874013 -29.618400 13.222787 4.606971 10.531780 -12.436966 4.084554 0.257289 0.260936 -1.868405 8.262485 -15.946587 -1.481584 16.871803 6.290233 13.817697 2.297552 0.817465 3.067822 -1.637183 1.054459 -3.062392 -0.207681 6.888331 4.297733 -3.020649 4.621243 -0.724629 0.401017 -0.564574 -2.345689 5.191610 7.035189 1.207101 3.972936 4.667219 -17.181167 -0.862077 1.776408 -57.597850 -13.929219 16.426953 -2.464490 -21.932919 12.465957 -0.596144 -8.250333 8.952751 14.690702 3.075944 -0.125977 56.124594 5.925699 17.142764 -1.879488 23.678759 1.924283 4.639724 3.002224 1.867136 
-69.130898 105.432022 -15.880033 -11.410517 -72.552328 4.483088 -7.525696 -8.038692 9.607311 -4.650872 -31.740255 15.265092 4.511994 10.115367 -13.708749 3.994187 0.215754 0.234900 -1.989779 8.944286 -15.970884 -1.502081 18.679640 5.886485 13.991422 2.848340 0.791545 2.952226 -1.586557 1.024695 -3.013088 -0.295944 6.222476 4.199299 -2.801398 4.812157 -0.890773 0.382127 -0.499037 -2.226223 5.221355 7.248242 1.053859 4.376532 4.792883 -17.379975 -0.481609 1.614080 -57.102123 -13.415462 16.405685 -2.361464 -22.117720 12.600894 -0.328492 -8.137371 8.776780 15.136678 2.895688 0.179859 55.442001 5.961051 17.178345 -1.550446 23.962259 2.164312 4.514498 3.094252 1.570378 
-70.194054 105.136200 -15.387194 -10.354664 -68.990034 3.371993 -7.327363 -8.864029 9.242987 -6.079210 -33.576900 18.538885 4.089199 9.557588 -15.216324 4.247658 0.056199 0.126520 -1.992941 9.627775 -16.307215 -1.016495 20.056832 7.042131 13.654824 3.444616 0.509110 3.025361 -1.527446 0.905545 -2.689118 -0.304570 5.709021 4.160880 -2.711556 5.094656 -1.089055 0.436041 -0.706272 -2.188517 5.394123 7.563452 0.783658 4.712094 4.970275 -17.943647 -0.187983 1.665710 -56.305737 -12.785425 16.176103 -1.933151 -21.621019 11.877048 -0.175642 -7.929112 8.468281 15.490811 2.887984 0.525223 55.041926 5.697284 16.938357 -1.636862 24.132404 2.593675 4.393508 3.276064 0.676543 
